/vscmnt/brussel_pixiu_data/_data_brussel/112/vsc11236/PredSimResults/SUBJ04opt3D/weighted/trackIG/worker_05.mot
version=1
nRows=10
nColumns=50
inDegrees=yes
endheader
                time	         pelvis_tilt	         pelvis_list	     pelvis_rotation	           pelvis_tx	           pelvis_ty	           pelvis_tz	       hip_flexion_r	     hip_adduction_r	      hip_rotation_r	        knee_angle_r	       ankle_angle_r	         mtp_angle_r	       hip_flexion_l	     hip_adduction_l	      hip_rotation_l	        knee_angle_l	       ankle_angle_l	         mtp_angle_l	    lumbar_extension	      lumbar_bending	     lumbar_rotation	 ercspn_r/activation	 intobl_r/activation	 extobl_r/activation	    abd_r/activation	    add_r/activation	hamstrings_r/activation	bifemsh_r/activation	glut_max_r/activation	iliopsoas_r/activation	rect_fem_r/activation	  vasti_r/activation	gastroc_r/activation	 soleus_r/activation	tib_ant_r/activation	 ercspn_l/activation	 intobl_l/activation	 extobl_l/activation	    abd_l/activation	    add_l/activation	hamstrings_l/activation	bifemsh_l/activation	glut_max_l/activation	iliopsoas_l/activation	rect_fem_l/activation	  vasti_l/activation	gastroc_l/activation	 soleus_l/activation	tib_ant_l/activation	
          1.99762814	         -1.20443151	         -0.36552131	         -6.89531056	          1.71796020	          0.88543670	          0.00901627	        -11.92236347	          0.17191146	         -5.79968503	         -6.25748338	         14.50289048	         16.65045414	         27.43428816	         -2.25498540	         -6.32460732	         -9.39857414	          3.98407578	          0.23511474	        -14.24402699	          4.49583057	          8.14334793	          0.00999999	          0.00999999	          0.00999999	          0.09070293	          0.00999999	          0.03056808	          0.35060400	          0.01993496	          0.01842509	          0.00999999	          0.00999999	          0.28535317	          0.24573465	          0.01493182	          0.05683575	          0.24448883	          0.02231856	          0.00999999	          0.26217166	          0.06312155	          0.03638503	          0.01221957	          0.18779521	          0.03761354	          0.04992995	          0.00999999	          0.00999999	          0.34281970	
          2.01094566	         -1.30941411	         -0.36607860	         -6.65101209	          1.73264544	          0.88301391	          0.00853221	        -12.60338336	          0.10825470	         -6.44071380	         -6.72418980	         14.50494891	         17.94416590	         27.58294324	         -2.02332299	         -6.24786746	        -10.95010806	          3.83635421	          0.23281096	        -13.75639479	          3.85568172	          8.27763775	          0.03016443	          0.00999999	          0.00999999	          0.07422749	          0.00999999	          0.02501564	          0.34431460	          0.01631394	          0.01824606	          0.01000000	          0.00999999	          0.28625701	          0.25919513	          0.01221957	          0.04651201	          0.22559240	          0.01826458	          0.00999999	          0.35949107	          0.06837133	          0.02977599	          0.00999999	          0.15368376	          0.03078135	          0.04086059	          0.01493182	          0.01824606	          0.33048210	
          2.02426318	         -1.39896220	         -0.30903112	         -6.37316816	          1.74779358	          0.88067437	          0.00802391	        -13.24537062	         -0.01629535	         -7.12348145	         -7.34335978	         14.44003036	         19.33222992	         27.62977843	         -1.78725263	         -6.04809348	        -12.58298181	          3.67621932	          0.22431252	        -13.22255459	          3.12356387	          8.38728978	          0.02468531	          0.00999999	          0.00999999	          0.06074468	          0.00999999	          0.04446493	          0.31542514	          0.01402535	          0.01493181	          0.00999999	          0.00999999	          0.27652557	          0.26609337	          0.00999999	          0.03806349	          0.22733485	          0.01494697	          0.00999999	          0.29419249	          0.07818995	          0.02436743	          0.01451549	          0.12576838	          0.02519017	          0.03343860	          0.01221958	          0.01493182	          0.34914607	
          2.03758070	         -1.47466948	         -0.17950971	         -6.05510233	          1.76322942	          0.87856531	          0.00743090	        -13.79106847	         -0.22461865	         -7.85641087	         -8.19159271	         14.28795472	         20.81571528	         27.59954830	         -1.49788801	         -5.93201166	        -14.06372274	          3.31291250	          0.21374929	        -12.66562736	          2.29032166	          8.46247711	          0.02105674	          0.00999999	          0.00999999	          0.04971092	          0.00999999	          0.05030123	          0.26401291	          0.01209175	          0.01221957	          0.00999999	          0.00999999	          0.24571652	          0.26395446	          0.00999999	          0.03114957	          0.18604135	          0.01223197	          0.00999999	          0.24075487	          0.09049542	          0.01994129	          0.01187887	          0.10292359	          0.02061459	          0.09519912	          0.00999999	          0.01221958	          0.37298837	
          2.05089822	         -1.53662762	          0.01493400	         -5.69981621	          1.77884697	          0.87683986	          0.00673782	        -14.20265413	         -0.51730022	         -8.63943557	         -9.32138980	         14.01061425	         22.38543213	         27.48849155	         -1.15987804	         -5.97393902	        -15.40691322	          2.91870961	          0.19508493	        -12.10398270	          1.37044815	          8.49918611	          0.03255599	          0.00999999	          0.00999999	          0.04068134	          0.00999999	          0.05945474	          0.21605715	          0.01565699	          0.00999999	          0.00999999	          0.00999999	          0.20108415	          0.25301527	          0.00999999	          0.02549151	          0.15224848	          0.01001014	          0.01745234	          0.20262398	          0.09285832	          0.01631912	          0.01128716	          0.08422837	          0.01687012	          0.17801706	          0.00999999	          0.00999999	          0.39617325	
          2.06421575	         -1.58455104	          0.26513935	         -5.31583828	          1.79458790	          0.87565647	          0.00593973	        -14.45376350	         -0.89533201	         -9.47090214	        -10.76542185	         13.54895619	         24.03705359	         27.24134320	         -0.78193234	         -6.17230332	        -16.56383344	          2.68440742	          0.17243234	        -11.54804349	          0.38291967	          8.49665226	          0.05779005	          0.00999999	          0.00999999	          0.03329191	          0.00999999	          0.06523906	          0.17681216	          0.01969311	          0.00999999	          0.00999999	          0.00999999	          0.16455888	          0.22761629	          0.00999999	          0.02086119	          0.12459380	          0.00999999	          0.04449079	          0.18308199	          0.09231552	          0.01335489	          0.00999999	          0.06892899	          0.01380580	          0.23574324	          0.00999999	          0.00999999	          0.40326579	
          2.07753327	         -1.61934899	          0.55745862	         -4.91256934	          1.81032809	          0.87517804	          0.00503133	        -14.50191230	         -1.35871863	        -10.34444320	        -12.57475178	         12.84123237	         25.76588267	         26.83891555	         -0.36939498	         -6.47973630	        -17.50981183	          2.67103092	          0.15315462	        -11.01329511	         -0.64843796	          8.45851343	          0.07707260	          0.00999999	          0.00999999	          0.02724471	          0.00999999	          0.07552390	          0.14469569	          0.02662558	          0.00999999	          0.00999999	          0.00999999	          0.13466812	          0.18627168	          0.00999999	          0.02325067	          0.10196237	          0.00999999	          0.07017146	          0.16605445	          0.09253949	          0.01092908	          0.00999999	          0.05640861	          0.01129809	          0.25804273	          0.00999999	          0.00999999	          0.39679055	
          2.09085079	         -1.64183220	          0.87230673	         -4.50030498	          1.82592899	          0.87546892	          0.00401612	        -14.30400009	         -1.90336468	        -11.25161539	        -14.80331719	         11.85237431	         27.54305975	         26.29746082	          0.06954209	         -6.82497950	        -18.26175323	          2.88105109	          0.14908758	        -10.51549245	         -1.69587146	          8.38916854	          0.07337552	          0.00999999	          0.00999999	          0.02229593	          0.09441811	          0.10935576	          0.11841292	          0.02229594	          0.00999999	          0.00999999	          0.00999999	          0.11020677	          0.15243697	          0.00999999	          0.02413674	          0.08344175	          0.00999999	          0.08950402	          0.17107426	          0.09406496	          0.01000000	          0.00999999	          0.04616245	          0.00999999	          0.27188204	          0.00999999	          0.00999999	          0.36764081	
          2.10416831	         -1.65297283	          1.18498256	         -4.09159668	          1.84125854	          0.87650405	          0.00291271	        -13.82299862	         -2.52146162	        -12.17046899	        -17.49025484	         10.55080911	         29.32626686	         25.63150961	          0.52466340	         -7.12115379	        -18.82199794	          3.28130251	          0.19913397	        -10.06959353	         -2.72955383	          8.29324140	          0.06486096	          0.00999999	          0.00999999	          0.01824606	          0.16794229	          0.11905284	          0.09690419	          0.01824606	          0.00999999	          0.00999999	          0.00999999	          0.09018862	          0.12474805	          0.00999999	          0.02456497	          0.06828525	          0.00999999	          0.10265786	          0.16942639	          0.09581663	          0.00999999	          0.00999999	          0.03777742	          0.00999999	          0.27495408	          0.00999999	          0.00999999	          0.33189687	
          2.11748583	         -1.65313899	          1.46264599	         -3.69405183	          1.85622348	          0.87819471	          0.00174444	        -13.04594550	         -3.19389354	        -13.08129621	        -20.63239675	          8.92443207	         30.99868887	         24.84252072	          0.97151713	         -7.31156779	        -19.15847724	          3.72205524	          0.33009818	         -9.68624486	         -3.71128371	          8.17056934	          0.05965935	          0.00999999	          0.00999999	          0.01493182	          0.19716187	          0.12879419	          0.07930235	          0.01493182	          0.00999999	          0.00999999	          0.00999999	          0.07380660	          0.10208860	          0.00999999	          0.02567098	          0.05588180	          0.01221957	          0.11060128	          0.16985591	          0.09902442	          0.00999999	          0.00999999	          0.03091547	          0.00999999	          0.26509894	          0.00999999	          0.00999999	          0.29734131	
